<?xml version="1.0" encoding="UTF-8" standalone="no"?>
<!-- Created with Inkscape (http://www.inkscape.org/) -->

<svg
   width="174.97795mm"
   height="28.222252mm"
   viewBox="0 0 174.97795 28.222252"
   version="1.1"
   id="svg5"
   inkscape:version="1.1.2 (0a00cf5339, 2022-02-04, custom)"
   sodipodi:docname="logo.svg"
   xmlns:inkscape="http://www.inkscape.org/namespaces/inkscape"
   xmlns:sodipodi="http://sodipodi.sourceforge.net/DTD/sodipodi-0.dtd"
   xmlns="http://www.w3.org/2000/svg"
   xmlns:svg="http://www.w3.org/2000/svg">
  <sodipodi:namedview
     id="namedview7"
     pagecolor="#ffffff"
     bordercolor="#666666"
     borderopacity="1.0"
     inkscape:pageshadow="2"
     inkscape:pageopacity="0.0"
     inkscape:pagecheckerboard="0"
     inkscape:document-units="mm"
     showgrid="false"
     fit-margin-top="0"
     fit-margin-left="0"
     fit-margin-right="0"
     fit-margin-bottom="0"
     inkscape:zoom="0.71090067"
     inkscape:cx="172.31662"
     inkscape:cy="269.37659"
     inkscape:window-width="1920"
     inkscape:window-height="991"
     inkscape:window-x="-9"
     inkscape:window-y="-9"
     inkscape:window-maximized="1"
     inkscape:current-layer="text980" />
  <defs
     id="defs2" />
  <g
     inkscape:label="Layer 1"
     inkscape:groupmode="layer"
     id="layer1"
     transform="translate(-46.522556,-77.476998)">
    <g
       aria-label="GizmoBoy"
       id="text980"
       style="font-weight:bold;font-size:22.5778px;line-height:1.25;font-family:monospace;-inkscape-font-specification:'monospace Bold';stroke-width:0.264583">
      <path
         d="M 46.522556,105.69925 V 83.121449 h 5.64445 V 100.0548 h 5.644451 v -5.644451 h 5.64445 v 11.288901 z m 5.64445,-22.577801 v -5.644451 h 11.288901 v 5.644451 z"
         style="font-family:'PICO-8 mono';-inkscape-font-specification:'PICO-8 mono Bold';fill:#ff004d;fill-opacity:1"
         id="path3654" />
      <path
         d="m 69.100357,105.69925 v -5.64445 h 5.64445 V 88.765899 h -5.64445 v -5.64445 h 16.933351 v 5.64445 H 80.389257 V 100.0548 h 5.644451 v 5.64445 z"
         style="font-family:'PICO-8 mono';-inkscape-font-specification:'PICO-8 mono Bold';fill:#ffa300;fill-opacity:1"
         id="path3656" />
      <path
         d="M 91.678158,105.69925 V 94.410349 h 5.64445 v 5.644451 h 11.288902 v 5.64445 z M 102.96706,94.410349 v -5.64445 H 91.678158 v -5.64445 h 16.933352 v 11.2889 z"
         style="font-family:'PICO-8 mono';-inkscape-font-specification:'PICO-8 mono Bold';fill:#ffec27;fill-opacity:1"
         id="path3658" />
      <path
         d="M 114.25595,105.69925 V 83.121449 h 16.93336 v 22.577801 h -5.64445 V 94.410349 h -5.64446 v 11.288901 z"
         style="font-family:'PICO-8 mono';-inkscape-font-specification:'PICO-8 mono Bold';fill:#00e436;fill-opacity:1"
         id="path3660" />
      <path
         d="M 136.83376,105.69925 V 88.765899 h 5.64445 V 100.0548 h 5.64445 v 5.64445 z m 11.2889,-5.64445 V 88.765899 h -5.64445 v -5.64445 h 11.2889 V 100.0548 Z"
         style="font-family:'PICO-8 mono';-inkscape-font-specification:'PICO-8 mono Bold';fill:#29adff;fill-opacity:1"
         id="path3662" />
      <path
         d="M 159.41156,105.69925 V 77.476998 h 16.93335 v 11.288901 h -5.64445 v -5.64445 h -5.64445 v 5.64445 h 5.64445 v 5.64445 h -5.64445 v 5.644451 h 5.64445 v -5.644451 h 5.64445 v 11.288901 z"
         style="font-family:'PICO-8 mono';-inkscape-font-specification:'PICO-8 mono Bold';fill:#83769c;fill-opacity:1"
         id="path3664" />
      <path
         d="M 181.98935,105.69925 V 88.765899 h 5.64445 V 100.0548 h 5.64445 v 5.64445 z m 11.2889,-5.64445 V 88.765899 h -5.64445 v -5.64445 h 11.2889 V 100.0548 Z"
         style="font-family:'PICO-8 mono';-inkscape-font-specification:'PICO-8 mono Bold';fill:#ff77a8;fill-opacity:1"
         id="path3666" />
      <path
         d="m 204.56716,105.69925 v -5.64445 h 11.2889 v -5.644451 h -11.2889 v -11.2889 h 5.64445 v 5.64445 h 5.64445 v -5.64445 h 5.64445 v 22.577801 z"
         style="font-family:'PICO-8 mono';-inkscape-font-specification:'PICO-8 mono Bold';fill:#ffccaa;fill-opacity:1"
         id="path3668" />
    </g>
  </g>
</svg>
